<svg width="747" height="33" viewBox="0 0 747 33" fill="none" xmlns="http://www.w3.org/2000/svg">
<rect width="747" height="32" rx="4" fill="#F3F7FE"/>
<rect x="0.5" y="0.5" width="746" height="31" rx="3.5" stroke="black" stroke-opacity="0.08"/>
<rect x="220" width="313" height="32" fill="#D9E4FD"/>
<rect x="220.5" y="0.5" width="312" height="31" stroke="black" stroke-opacity="0.08"/>
<rect x="215" y="6" width="10.822" height="20" rx="5" fill="white"/>
<rect x="215.5" y="6.5" width="9.82199" height="19" rx="4.5" stroke="black" stroke-opacity="0.08"/>
<path d="M219.995 12.5V19.5" stroke="#C8D7FB"/>
<rect x="526.744" y="6" width="11.2568" height="20" rx="5" fill="white"/>
<rect x="527.244" y="6.5" width="10.2568" height="19" rx="4.5" stroke="black" stroke-opacity="0.08"/>
<path d="M531.939 12.5V19.5" stroke="#C8D7FB"/>
<path d="M100.678 9.77973C101.774 9.48647 102.687 9.93902 103.307 10.4604C103.916 10.9732 104.361 11.6428 104.629 12.0991C104.907 12.5714 105.087 13.0837 105.241 13.5786C105.407 14.1127 105.53 14.5765 105.729 15.1694C106.305 16.8892 107.082 17.621 107.745 18.4555C107.852 18.5898 108.051 18.7231 108.422 18.8159C108.794 18.909 109.256 18.9406 109.775 18.9311C110.294 18.9216 110.806 18.8746 111.299 18.8364C111.726 18.8033 112.269 18.761 112.671 18.8334C113.79 19.0356 115.058 19.2098 116.162 19.394C116.857 19.5099 117.6 19.7077 118.301 19.8862C119.022 20.0698 119.728 20.2412 120.436 20.3393C121.224 20.4486 121.948 20.7457 122.535 21.0121C123.182 21.3056 123.595 21.5227 123.977 21.6401C124.578 21.825 125.234 22.2471 125.8 22.6235C126.419 23.0354 127.011 23.4526 127.62 23.8012L127.663 23.8256L127.703 23.8539C127.88 23.9796 128.028 24.1129 128.131 24.2055C128.245 24.3076 128.313 24.3683 128.385 24.4204C128.454 24.4705 128.537 24.5175 128.638 24.5698C128.936 24.6477 129.237 24.7598 129.504 24.8686C129.891 25.0262 130.372 25.2452 130.743 25.4028C131.726 25.8205 133.131 26.1105 134.116 26.2475C134.689 26.3271 135.288 26.4591 135.808 26.5766C136.353 26.6999 136.784 26.8001 137.104 26.8461C137.583 26.9153 137.931 27.0153 139.169 27.1342C140.398 27.2524 142.453 27.3803 146.117 27.4692C147.623 27.5057 148.765 27.5684 149.912 27.6342C151.058 27.6999 152.208 27.7684 153.751 27.8207C155.015 27.8636 156.78 27.8725 158.563 27.8793C160.336 27.8861 162.125 27.891 163.407 27.9262C164.883 27.9668 166.148 28.0559 167.364 28.1381C168.583 28.2205 169.754 28.2959 171.075 28.3129C174.458 28.3565 178.84 28.6279 179.784 28.7827L179.849 28.7934L179.911 28.812C180.956 29.1272 181.77 29.193 182.782 29.2983C183.177 29.3181 183.706 29.3248 184.305 29.3286C184.473 29.1996 184.684 29.1225 184.912 29.1225C186.016 29.1225 188.002 29.1225 191.003 29.2983C191.852 29.348 192.721 29.4871 193.579 29.6274C194.451 29.77 195.327 29.9165 196.257 30.0024C199.58 30.3092 201.539 30.2625 202.772 30.1371C203.386 30.0748 203.831 29.9922 204.188 29.9174C204.515 29.8493 204.886 29.7597 205.216 29.726C206.127 29.6331 207.621 29.3541 209.037 29.1352C209.466 29.0688 209.869 28.9627 210.536 28.8198C211.175 28.683 211.96 28.5363 213.015 28.4252C214.254 28.2947 216.356 28.0698 219.268 27.9291C220.498 27.8697 222.113 27.5088 228.434 27.3666C234.825 27.2229 246.224 27.2227 252.165 27.1879C258.622 27.1502 259.552 26.8787 261.167 26.7358C262.365 26.6298 263.665 26.393 265.145 26.1479C266.604 25.9061 268.204 25.6634 269.911 25.5727C272.548 25.4327 277.696 25.5343 280.315 25.5004C283.851 25.4547 285.231 25.0621 287.639 24.8705H287.642C290.03 24.6875 293.426 24.5559 294.823 24.351L294.855 24.3461L294.888 24.3442C295.828 24.2685 297.092 24.269 298.33 24.269C298.604 24.269 298.852 24.3797 299.032 24.558C299.242 24.5555 299.457 24.5533 299.676 24.5541C300.796 24.5584 302.091 24.6029 303.418 24.6557C305.668 24.7452 309.84 24.691 312.243 24.6215C315.811 24.5183 316.686 24.0308 318.143 23.7905C319.701 23.5334 320.87 23.2947 321.955 23.184C322.893 23.0883 324.113 23.0079 325.348 22.9223C326.595 22.8358 327.866 22.7432 328.943 22.6225C330.637 22.4328 332.113 22.4062 333.548 22.4125C334.994 22.419 336.359 22.4576 337.919 22.4057C340.789 22.3102 346.273 22.3686 349.133 22.3344C352.827 22.2902 353.734 21.8401 354.619 21.7123C355.536 21.58 356.919 21.3876 361.909 21.2455C362.991 21.2147 363.855 21.1144 365.081 21.0014C366.3 20.8891 367.815 20.7706 370.127 20.7172C374.412 20.6183 382.645 20.6818 387 20.7514C392.268 20.8357 394.163 21.6328 395.306 21.7797C396.629 21.9499 398.071 22.2731 400.533 22.5424L401.654 22.6547L401.689 22.6577L401.724 22.6625C403.818 22.9997 405.374 23.155 407.391 23.5717C407.999 23.6335 408.721 23.6362 409.537 23.6362C409.873 23.6362 410.168 23.8027 410.35 24.0561C412.013 24.0547 413.846 24.0501 416.459 24.0229C419.808 23.9881 424.359 23.9187 426.967 23.8139C429.54 23.7105 430.154 23.5684 435.408 23.4965C440.66 23.4247 450.588 23.4246 455.914 23.4594C461.697 23.4972 462.439 23.7074 463.308 23.8608C463.98 23.9795 464.899 24.0983 466.021 24.2543C467.129 24.4083 468.403 24.5949 469.731 24.8452C472.302 25.3294 473.36 25.4664 478.427 25.7817L478.44 25.7827L478.453 25.7836C479.691 25.8939 480.103 26.0265 482.777 26.0971C485.476 26.1684 490.389 26.1684 495.476 26.1684C495.82 26.1685 496.124 26.3434 496.304 26.6088C506.128 27.0172 507.852 27.1555 509.279 27.2983C510.794 27.4497 513.062 27.7861 518.168 27.9262C518.945 27.9476 520.045 28.0391 521.415 28.1332C522.804 28.2287 524.525 28.3315 526.607 28.3832C527.544 28.4065 528.37 28.4886 529.776 28.5717C531.215 28.6568 533.349 28.7505 537.028 28.8041C544.405 28.9117 557.901 28.9118 564.963 28.9467C571.994 28.9814 572.246 29.049 572.877 29.1303C573.152 29.1658 573.386 29.3101 573.542 29.5141C573.844 29.4798 574.152 29.4458 574.456 29.4116C575.555 29.288 576.606 29.1673 577.259 29.0649C577.739 28.9895 578.454 28.8454 581.787 28.7729C585.088 28.7011 591.022 28.701 594.222 28.6664C598.396 28.6213 599.452 28.1004 600.609 27.9067C601.132 27.8193 601.633 27.7908 602.247 27.77C602.87 27.7488 603.617 27.7354 604.706 27.683C606.604 27.5919 610.172 27.6442 612.035 27.6108C614.846 27.5603 615.834 27.1862 616.777 26.9975C617.627 26.8276 618.697 26.7464 619.668 26.6928C620.682 26.6368 621.561 26.6109 622.175 26.559C622.217 26.5555 622.242 26.5522 622.356 26.5375C622.459 26.5244 622.591 26.5088 622.782 26.4936C623.159 26.4636 623.761 26.4336 624.837 26.4155C627.008 26.379 631.036 26.3805 633.225 26.311C634.781 26.2615 636.036 26.1414 637.08 26.02C638.097 25.9018 639.001 25.7695 639.734 25.7143C640.556 25.6525 641.222 25.3496 642.301 24.9623C643.318 24.5973 644.173 24.4871 645.178 24.3188C645.827 24.21 646.649 23.8571 647.699 23.0161C648.731 22.1897 649.629 21.4164 650.519 20.9672C650.833 20.8084 651.13 20.5743 651.479 20.2553C651.786 19.9739 652.234 19.5262 652.654 19.1664C653.682 18.2858 654.817 18.2196 656.403 18.1176C658.13 18.0065 660.541 17.5407 661.945 16.7661C663.576 15.8668 665.373 15.8284 666.429 15.8647C667.275 15.8938 668.02 16.2516 668.647 16.5551C669.315 16.878 669.975 17.2106 670.836 17.4448C671.571 17.6446 672.137 17.7507 672.737 17.8793C673.335 18.0074 673.938 18.1521 674.652 18.4243C675.711 18.8276 676.32 19.1013 677.132 19.2582C677.44 19.3062 677.731 19.3899 677.953 19.4536C677.977 19.4604 677.976 19.4604 678 19.4672C678.005 19.4685 678.008 19.4694 678.011 19.4702L678.022 19.4741L678.046 19.4799C678.085 19.4911 678.053 19.4825 678.092 19.4936C678.101 19.4961 678.095 19.494 678.104 19.4965L678.109 19.4985H678.11L678.112 19.4995C678.116 19.5004 678.112 19.4994 678.115 19.5004C678.13 19.5046 678.112 19.4991 678.127 19.5034H678.128L678.13 19.5043C678.131 19.5046 678.132 19.505 678.133 19.5053C678.136 19.5062 678.134 19.5053 678.138 19.5063L678.185 19.52C678.251 19.5389 678.164 19.5136 678.23 19.5327C678.282 19.5473 678.271 19.5444 678.322 19.559C678.355 19.5683 678.301 19.5536 678.334 19.5629C678.338 19.564 678.342 19.5648 678.346 19.5659C678.352 19.5677 678.363 19.5709 678.369 19.5727C678.45 19.5957 678.334 19.5622 678.415 19.5854C678.44 19.5924 678.437 19.5921 678.461 19.5991C678.474 19.6029 678.494 19.6089 678.508 19.6127C678.525 19.6176 678.537 19.6205 678.555 19.6254C678.565 19.6283 678.591 19.6363 678.601 19.6391C678.613 19.6426 678.635 19.6493 678.647 19.6528C678.664 19.6575 678.643 19.651 678.659 19.6557C678.665 19.6575 678.665 19.6578 678.671 19.6596C678.679 19.662 678.686 19.6631 678.694 19.6655C678.804 19.6967 678.903 19.7454 678.991 19.8071C679.193 19.8453 679.412 19.8854 679.647 19.9272C680.157 20.0178 680.735 20.122 681.234 20.2602C682.13 20.508 683.208 20.7632 684.648 20.934C685.404 21.0237 686.15 21.3174 686.772 21.6518C687.398 21.9879 687.967 22.4012 688.367 22.7914C688.459 22.8812 688.628 22.9675 689.071 23.1039C689.451 23.2207 690.05 23.379 690.61 23.6889C691.008 23.9091 691.421 24.0099 691.951 24.1059C692.453 24.1967 693.129 24.2908 693.813 24.5366C694.592 24.8163 695.28 24.9811 695.981 25.1303C696.671 25.2771 697.422 25.4172 698.227 25.6391C700.5 26.2659 702.379 26.5966 706.481 26.9438C709.048 27.161 711.202 27.2128 712.776 27.2368C713.555 27.2486 714.217 27.2545 714.699 27.27C714.941 27.2777 715.161 27.2879 715.343 27.3061C715.455 27.3174 715.682 27.3411 715.896 27.4252L715.987 27.4653L716.026 27.4799C716.093 27.4988 716.272 27.527 716.825 27.5405C717.459 27.5559 718.704 27.5582 720.58 27.6098C724.108 27.7068 730.81 27.6449 734.484 27.6801C738.125 27.715 738.483 27.7861 739.633 27.8207C740.805 27.856 742.855 27.8559 744.995 27.8559C745.547 27.8559 745.995 28.3038 745.995 28.8559C745.995 29.4082 745.547 29.8559 744.995 29.8559C742.872 29.8559 740.783 29.8562 739.572 29.8198C738.34 29.7827 738.088 29.7148 734.465 29.6801C730.875 29.6457 724.064 29.7061 720.525 29.6088C718.563 29.5549 717.559 29.5585 716.776 29.5395C716.147 29.5242 715.661 29.4974 715.209 29.3041C715.194 29.302 715.172 29.2992 715.144 29.2963C715.031 29.285 714.865 29.2763 714.635 29.269C714.174 29.2543 713.551 29.249 712.746 29.2368C711.153 29.2125 708.946 29.1598 706.312 28.937C702.137 28.5836 700.127 28.2382 697.695 27.5678C696.966 27.3668 696.314 27.2457 695.565 27.0864C694.828 26.9294 694.04 26.7424 693.138 26.4184C692.653 26.2445 692.201 26.1844 691.595 26.0746C691.016 25.97 690.338 25.8236 689.643 25.4389C689.311 25.2554 688.966 25.1637 688.483 25.0151C688.064 24.886 687.449 24.6905 686.971 24.2241C686.723 23.9824 686.312 23.6754 685.826 23.4145C685.337 23.152 684.838 22.9708 684.413 22.9204C682.846 22.7346 681.665 22.4542 680.7 22.187C680.308 22.0783 679.824 21.9894 679.298 21.8959C678.798 21.8072 678.242 21.7121 677.794 21.5932C677.635 21.5511 677.496 21.4734 677.382 21.3705C677.134 21.2998 676.963 21.2527 676.801 21.2299L676.775 21.227L676.751 21.2221C675.719 21.0225 674.881 20.6517 673.94 20.2934C673.364 20.0739 672.874 19.9536 672.318 19.8344C671.765 19.7159 671.115 19.593 670.312 19.3745C669.241 19.0833 668.414 18.6641 667.777 18.3559C667.1 18.0283 666.722 17.8762 666.36 17.8637C665.389 17.8303 664.049 17.8896 662.911 18.517C661.125 19.5019 658.369 19.9955 656.531 20.1137C654.804 20.2248 654.391 20.3118 653.955 20.685C653.546 21.0351 653.263 21.3332 652.828 21.7309C652.435 22.0908 651.979 22.4702 651.42 22.7524C650.772 23.0797 650.102 23.6542 648.949 24.5776C647.724 25.5592 646.592 26.1097 645.509 26.2914C644.424 26.4733 643.784 26.5554 642.977 26.8452C642.086 27.1647 641.056 27.6212 639.885 27.7094C639.202 27.7608 638.421 27.8773 637.312 28.0063C636.23 28.132 634.916 28.2583 633.288 28.31C631.093 28.3798 626.966 28.3802 624.871 28.4155C623.814 28.4332 623.259 28.4615 622.941 28.4868C622.786 28.4991 622.686 28.5112 622.609 28.5209C622.545 28.5292 622.442 28.5439 622.344 28.5522C621.697 28.6069 620.705 28.6388 619.778 28.6899C618.808 28.7434 617.866 28.8193 617.17 28.9584C616.33 29.1264 615.111 29.5562 612.071 29.6108C610.056 29.647 606.684 29.5897 604.802 29.6801C603.695 29.7333 602.906 29.7489 602.314 29.769C601.714 29.7894 601.324 29.815 600.939 29.8793C600.004 30.0359 598.624 30.6191 594.243 30.6664C590.996 30.7015 585.122 30.7003 581.83 30.7719C578.572 30.8428 577.947 30.9821 577.569 31.0414C576.864 31.1522 575.761 31.2772 574.68 31.3989C573.581 31.5225 572.497 31.6428 571.783 31.7455C571.273 31.819 570.797 31.4934 570.672 31.0053C569.609 30.9816 567.875 30.9602 564.953 30.9457C557.913 30.911 544.387 30.9118 536.999 30.8041C533.296 30.7502 531.131 30.6549 529.658 30.5678C528.153 30.4788 527.455 30.4046 526.559 30.3823C524.436 30.3295 522.684 30.2249 521.278 30.1284C519.853 30.0305 518.834 29.9451 518.112 29.9252C512.917 29.7826 510.564 29.4359 509.081 29.2875C507.701 29.1496 506.008 29.0115 495.805 28.5893C495.483 28.576 495.203 28.4114 495.03 28.1674C490.116 28.1674 485.377 28.1662 482.725 28.0961C479.973 28.0234 479.409 27.8765 478.282 27.7758C473.194 27.459 472.042 27.3163 469.36 26.811C468.08 26.5697 466.843 26.3875 465.745 26.2348C464.662 26.0842 463.68 25.9576 462.96 25.8305C462.239 25.7032 461.617 25.4968 455.9 25.4594C450.58 25.4246 440.668 25.4249 435.436 25.4965C430.205 25.5681 429.724 25.7044 427.047 25.812C424.405 25.9181 419.826 25.9881 416.479 26.0229C413.126 26.0578 411.053 26.058 408.982 26.058C408.639 26.058 408.335 25.8848 408.155 25.6205C407.808 25.6097 407.467 25.5919 407.147 25.558L407.098 25.5532L407.049 25.5434C405.06 25.1287 403.681 25.0015 401.441 24.642C398.297 24.3574 396.303 23.9242 395.051 23.7631C393.42 23.5535 392.152 22.8343 386.969 22.7514C382.616 22.6818 374.416 22.6193 370.173 22.7172C367.916 22.7693 366.448 22.8836 365.265 22.9926C364.089 23.101 363.131 23.2114 361.966 23.2446C357.022 23.3853 355.721 23.5739 354.904 23.6918C354.313 23.7773 353.017 24.2882 349.157 24.3344C346.193 24.3699 340.843 24.3096 337.985 24.4047C336.376 24.4583 334.93 24.4187 333.539 24.4125C332.137 24.4063 330.749 24.4335 329.166 24.6108C328.04 24.7369 326.729 24.8313 325.486 24.9174C324.232 25.0044 323.055 25.0818 322.158 25.1733C321.154 25.2757 320.135 25.4892 318.469 25.7641C317.342 25.95 316.034 26.5125 312.301 26.6205C309.89 26.6903 305.662 26.7461 303.339 26.6538C302.013 26.601 300.749 26.5583 299.668 26.5541C298.569 26.5499 297.727 26.5872 297.212 26.6762C296.827 26.7429 296.455 26.5797 296.237 26.2856C295.802 26.2953 295.405 26.3092 295.062 26.3364C293.552 26.5495 289.979 26.6972 287.794 26.8647L287.793 26.8637C285.719 27.029 283.911 27.4543 280.341 27.5004C277.573 27.5362 272.614 27.4318 270.017 27.5698C268.426 27.6543 266.918 27.881 265.472 28.1205C264.046 28.3567 262.64 28.6133 261.344 28.728C259.763 28.8678 258.737 29.1496 252.177 29.1879C246.21 29.2228 234.847 29.2234 228.479 29.3666C222.04 29.5114 220.985 29.8488 219.364 29.9272C216.511 30.065 214.454 30.2849 213.224 30.4145C212.255 30.5165 211.542 30.6491 210.955 30.7748C210.397 30.8944 209.846 31.0339 209.343 31.1118C208.043 31.3127 206.395 31.6157 205.419 31.7153C205.227 31.7349 205.033 31.7844 204.598 31.8754C204.194 31.9598 203.678 32.056 202.976 32.1274C201.577 32.2695 199.481 32.3083 196.072 31.9936C195.06 31.9001 194.114 31.7412 193.257 31.601C192.385 31.4584 191.615 31.3371 190.886 31.2944C188.9 31.1781 187.37 31.1425 186.251 31.1303C186.084 31.2568 185.876 31.3334 185.65 31.3334C184.534 31.3334 183.407 31.3338 182.671 31.2963L182.618 31.2924C181.656 31.1918 180.657 31.1141 179.421 30.7514C178.546 30.6211 174.38 30.3558 171.05 30.3129C169.668 30.2951 168.449 30.2167 167.229 30.1342C166.005 30.0515 164.781 29.9645 163.353 29.9252C162.1 29.8908 160.34 29.8862 158.556 29.8793C156.782 29.8725 154.983 29.8638 153.684 29.8198C152.114 29.7666 150.941 29.6958 149.798 29.6303C148.656 29.5649 147.542 29.5039 146.069 29.4682C142.383 29.3788 140.274 29.2491 138.978 29.1245C137.689 29.0006 137.147 28.873 136.818 28.8256C136.399 28.7651 135.864 28.6394 135.366 28.5268C134.843 28.4084 134.32 28.2945 133.841 28.228C132.792 28.0822 131.184 27.7634 129.961 27.2436C129.5 27.0477 129.137 26.8792 128.749 26.7211C128.722 26.71 128.695 26.7002 128.669 26.6899C128.528 26.6907 128.385 26.6635 128.248 26.601C128.164 26.5623 128.071 26.5161 127.973 26.4692C127.724 26.4344 127.51 26.3113 127.357 26.1352C127.31 26.1047 127.261 26.0762 127.216 26.0434C127.129 25.9807 127.049 25.9155 126.978 25.8549L126.662 25.5766C126.624 25.5446 126.591 25.5187 126.558 25.4946C125.894 25.1092 125.231 24.6466 124.691 24.2875C124.08 23.8806 123.664 23.6369 123.389 23.5522C122.844 23.3848 122.203 23.0575 121.709 22.8334C121.156 22.5824 120.65 22.3886 120.161 22.3207C119.332 22.2058 118.53 22.0089 117.807 21.8246C117.063 21.6352 116.423 21.4651 115.833 21.3666C114.837 21.2005 113.425 21.0024 112.315 20.8022C112.223 20.7857 111.973 20.7903 111.454 20.8305C110.999 20.8658 110.407 20.9192 109.812 20.9301C109.219 20.941 108.555 20.9115 107.936 20.7563C107.314 20.6007 106.654 20.2979 106.179 19.6996C105.61 18.9833 104.547 17.9373 103.832 15.8051C103.631 15.2039 103.464 14.5953 103.332 14.1723C103.188 13.7105 103.062 13.3792 102.905 13.1127C102.677 12.724 102.369 12.2853 102.019 11.9907C101.679 11.7046 101.425 11.6497 101.194 11.7114C100.456 11.9088 99.8743 12.259 99.458 12.9516C99.2288 13.333 99.1155 13.7043 99.0098 14.1284C98.9139 14.5128 98.7995 15.0851 98.543 15.5942C98.0981 16.4771 97.4352 17.7783 96.3164 18.5649C94.8703 19.5813 93.2558 19.7552 91.5498 19.9008C90.4289 19.9965 89.651 20.0008 88.6377 20.2143C87.6557 20.4212 86.4519 20.8319 84.6748 21.7641C83.9657 22.1361 83.47 22.4758 83.0371 22.7797C82.6229 23.0706 82.178 23.3957 81.666 23.6196C81.2097 23.8191 80.7049 24.1134 80.166 24.4457C79.6527 24.7624 79.0823 25.1316 78.585 25.4077C77.6066 25.9506 76.3349 26.549 75.1357 27.1498C74.7596 27.3383 73.9985 27.8089 73.0498 28.1752C72.0492 28.5615 70.7557 28.8827 69.001 28.9428C66.9478 29.0132 63.394 29.0126 61.4775 28.9399C60.5042 28.9029 59.9473 28.8487 59.3545 28.7963C58.775 28.7452 58.1393 28.6937 56.9736 28.6596C54.615 28.5906 50.2493 28.5907 47.9414 28.6264C45.6639 28.6617 45.4517 28.7302 45.1621 28.7612C43.6106 28.9271 41.1354 29.3745 38.9043 29.3998C37.3949 29.417 35.927 29.499 34.5557 29.5844C33.1958 29.6692 31.9087 29.7587 30.8047 29.7866C28.0553 29.8559 26.3861 29.9859 26.0195 30.0268C25.5896 30.0748 24.9764 30.1958 24.2432 30.3325C23.5419 30.4632 22.7506 30.6039 22.0576 30.6625C20.8707 30.7629 18.9286 31.0637 16.1504 31.0883C12.187 31.1234 9.44403 31.2771 8.21191 31.2993C6.26682 31.3343 4.16087 31.3334 2.33691 31.3334C1.78472 31.3334 1.33706 30.8856 1.33691 30.3334C1.33713 29.7813 1.78476 29.3334 2.33691 29.3334C4.16431 29.3334 6.25188 29.3339 8.17578 29.2993C9.23745 29.2802 12.2308 29.1229 16.1328 29.0883C18.8127 29.0646 20.5546 28.7822 21.8887 28.6694C22.4688 28.6203 23.1677 28.4979 23.877 28.3657C24.5545 28.2394 25.2734 28.0981 25.7979 28.0395C26.2471 27.9894 27.9806 27.8575 30.7539 27.7875C31.81 27.7609 33.0433 27.6748 34.4316 27.5883C35.8087 27.5025 37.318 27.4176 38.8809 27.3998C40.994 27.3759 43.1665 26.9636 44.9492 26.7729C45.2796 26.7376 45.555 26.6629 47.9102 26.6264C50.235 26.5904 54.6331 26.5904 57.0322 26.6606C58.2451 26.6961 58.9208 26.7503 59.5303 26.8041C60.1264 26.8568 60.637 26.907 61.5537 26.9418C63.4179 27.0126 66.9232 27.0127 68.9326 26.9438C70.4659 26.8912 71.5393 26.6153 72.3301 26.31C73.1724 25.9848 73.628 25.6681 74.2393 25.3618C75.51 24.725 76.684 24.1749 77.6143 23.6586C78.058 23.4124 78.5449 23.096 79.1162 22.7436C79.662 22.407 80.2697 22.0479 80.8652 21.7875C81.1522 21.6621 81.4139 21.4764 81.8887 21.143C82.3449 20.8227 82.9221 20.4244 83.7451 19.9926C85.6414 18.9978 87.0209 18.5111 88.2256 18.2573C89.3988 18.0101 90.4116 17.9903 91.3799 17.9077C93.1265 17.7586 94.2166 17.5964 95.166 16.9291C95.8118 16.4752 96.2778 15.6444 96.7568 14.6938C96.8846 14.4401 96.9389 14.1679 97.0693 13.645C97.1899 13.1615 97.3604 12.5599 97.7441 11.9213C98.4903 10.68 99.57 10.076 100.678 9.77973Z" fill="#D0E1FB"/>
</svg>
