<svg width="76" height="72" viewBox="0 0 76 72" fill="none" xmlns="http://www.w3.org/2000/svg">
<path d="M0 43.2118C0.435067 41.1293 0.581273 39.6185 1.23153 37.556C3.49084 30.3896 8.48196 24.5849 15.2985 21.4347C20.6547 18.9647 26.675 18.3268 32.43 19.6192C39.2296 21.0985 45.3601 25.5936 49.0602 31.4096C49.7824 32.5447 50.2999 33.7295 50.868 34.9436C55.8241 33.8283 59.7302 33.5429 64.4795 35.7049C68.315 37.4509 71.1054 39.819 73.2729 43.4704C74.1066 44.8751 74.8334 46.7768 75.2979 48.3502C75.475 48.9474 75.6647 51.1718 75.8647 51.4911V54.9218L75.841 54.9871C75.4535 56.0781 75.4439 57.4776 75.0342 58.6584C73.3107 63.6247 70.3365 67.3265 65.7022 69.8152C62.889 71.3258 61.8211 71.2717 58.9558 72H24.556C23.2992 71.6488 21.6613 71.6466 20.3649 71.311C17.3837 70.5383 14.5803 69.2849 12.0042 67.6165C6.49746 63.9956 2.52166 58.4688 0.839646 52.0966C0.33735 50.2037 0.372162 49.039 0 47.3009V43.2118Z" fill="black"/>
<path d="M0 43.2118C0.435067 41.1293 0.581273 39.6185 1.23153 37.556C3.49084 30.3896 8.48196 24.5849 15.2985 21.4347C20.6547 18.9647 26.675 18.3268 32.43 19.6192C39.2296 21.0985 45.3601 25.5936 49.0602 31.4096C49.7824 32.5447 50.2999 33.7295 50.868 34.9436C55.8241 33.8283 59.7302 33.5429 64.4795 35.7049C68.315 37.4509 71.1054 39.819 73.2729 43.4704C74.1066 44.8751 74.8334 46.7768 75.2979 48.3502C75.475 48.9474 75.6647 51.1718 75.8647 51.4911V54.9218L75.841 54.9871C75.4535 56.0781 75.4439 57.4776 75.0342 58.6584C73.3107 63.6247 70.3365 67.3265 65.7022 69.8152C62.889 71.3258 61.8211 71.2717 58.9558 72H24.556C23.2992 71.6488 21.6613 71.6466 20.3649 71.311C17.3837 70.5383 14.5803 69.2849 12.0042 67.6165C6.49746 63.9956 2.52166 58.4688 0.839646 52.0966C0.33735 50.2037 0.372162 49.039 0 47.3009V43.2118Z" fill="url(#paint0_linear_0_39)"/>
<path d="M72.7486 29.3449C71.6141 28.9744 70.8187 28.1277 69.7938 27.6834C68.0166 26.7186 65.5503 26.1657 63.7711 25.4049C62.3624 24.8025 55.9244 24.7697 55.5237 24.213C51.7005 18.9005 45.823 14.0658 39.4723 11.9318C39.3693 11.6577 39.5239 11.3355 39.6378 11.087C46.9314 -4.82874 69.8806 -3.23289 75.109 13.4595C75.4232 14.4636 75.555 16.2621 75.8432 17.0152L75.864 17.0673V20.4111C75.7151 20.8071 75.4439 22.8411 75.3024 23.4376C74.8986 25.1431 73.6908 27.91 72.7486 29.3449Z" fill="black"/>
<path d="M72.7486 29.3449C71.6141 28.9744 70.8187 28.1277 69.7938 27.6834C68.0166 26.7186 65.5503 26.1657 63.7711 25.4049C62.3624 24.8025 55.9244 24.7697 55.5237 24.213C51.7005 18.9005 45.823 14.0658 39.4723 11.9318C39.3693 11.6577 39.5239 11.3355 39.6378 11.087C46.9314 -4.82874 69.8806 -3.23289 75.109 13.4595C75.4232 14.4636 75.555 16.2621 75.8432 17.0152L75.864 17.0673V20.4111C75.7151 20.8071 75.4439 22.8411 75.3024 23.4376C74.8986 25.1431 73.6908 27.91 72.7486 29.3449Z" fill="url(#paint1_linear_0_39)"/>
<defs>
<linearGradient id="paint0_linear_0_39" x1="0" y1="18.9665" x2="49.8071" y2="90.2157" gradientUnits="userSpaceOnUse">
<stop stop-color="#FFB900"/>
<stop offset="1" stop-color="#FF6900"/>
</linearGradient>
<linearGradient id="paint1_linear_0_39" x1="39.4385" y1="0" x2="68.1109" y2="35.5908" gradientUnits="userSpaceOnUse">
<stop stop-color="#FFB900"/>
<stop offset="1" stop-color="#FF6900"/>
</linearGradient>
</defs>
</svg>
