<svg width="579" height="224" viewBox="0 0 579 224" fill="none" xmlns="http://www.w3.org/2000/svg">
<path d="M7.50648 219.315L1.5013 222.818L0 223.819H579L566.99 219.815L548.974 213.31C543.369 211.308 539.966 204.802 538.965 201.8C536.163 194.994 529.457 191.291 526.455 190.29C521.65 190.29 519.115 183.951 518.448 180.782C516.846 175.177 513.11 172.107 511.442 171.273C507.438 168.871 505.77 165.935 505.436 164.768L499.431 153.258L493.426 138.745L490.924 135.743L482.417 134.742L476.912 130.738L472.908 124.233L467.904 121.23L459.897 117.227L457.895 111.222L451.89 98.7107L446.385 86.7004C446.385 83.8979 438.379 84.8654 434.375 85.6995C426.368 86.0998 421.698 78.8603 420.363 75.1904C418.762 71.187 416.026 69.8525 414.858 69.6857C412.056 70.4864 407.685 69.352 405.85 68.6848C404.249 65.482 400.846 60.6779 399.345 58.6762C392.939 52.671 390.337 46.8326 389.837 44.6641C388.636 40.6606 378.327 38.9925 373.322 38.6589C368.919 37.4578 360.478 28.4834 356.808 24.1463C353.205 20.1429 342.629 19.4756 337.792 19.6425C334.989 20.0428 331.62 18.4748 330.285 17.6407L319.276 2.12733C315.673 -2.27648 309.434 3.295 306.765 6.63121C295.956 16.2395 285.58 16.9735 281.743 16.1394C278.14 15.7391 275.571 16.9735 274.737 17.6407L268.732 27.6494C264.328 32.0532 260.892 30.1515 259.724 28.6502L249.215 16.6399C247.614 14.2378 244.878 14.9718 243.71 15.639C240.107 19.2421 236.538 16.473 235.203 14.6381L230.699 7.13165L225.695 0.125623C222.492 -1.07541 216.354 6.63124 213.685 10.6347C210.882 18.6416 206.178 21.3106 204.176 21.6442C201.374 23.6459 194.668 21.1438 191.666 19.6425H188.663C184.659 19.2421 179.989 27.1489 178.154 31.1524C176.152 38.759 169.98 38.9925 167.144 38.1584C162.741 37.3577 160.639 41.8282 160.138 44.1636L157.136 55.6735L153.633 63.6804C152.031 64.4811 149.963 68.0175 149.129 69.6856C147.127 74.0894 143.624 73.1887 142.123 72.1878L136.118 63.18C133.715 57.9755 131.113 56.3407 130.112 56.1739C124.508 55.7735 121.105 62.3459 120.104 65.6821L118.102 72.6881L116.1 75.1903C116.1 77.9927 113.098 81.3623 111.596 82.6968C109.595 84.2981 105.424 84.3649 103.589 84.1982C99.586 81.3957 93.9144 86.3667 91.5791 89.2025L89.0769 93.206L87.0752 97.2094L85.0735 102.714L82.0709 110.721L79.0683 119.228L74.5644 121.731L69.0596 124.233H67.0579L65.0562 125.234L63.5549 127.235L58.0501 139.746L54.5471 149.755L53.5462 153.258L51.5445 156.26L50.5436 159.263L48.5419 162.266L45.0389 165.268L42.5367 169.772L40.535 174.776L39.5341 179.28L37.5324 183.784L35.5307 186.286L33.529 188.288L30.5264 189.789L28.5246 192.292L26.5229 195.795L24.5212 198.797L22.019 203.801L19.5169 206.304L17.5151 208.806L16.5143 210.808L14.5125 213.31L11.5099 216.312L7.50648 219.315Z" fill="url(#paint0_linear_0_239)" fill-opacity="0.6"/>
<defs>
<linearGradient id="paint0_linear_0_239" x1="0" y1="0" x2="0" y2="223.819" gradientUnits="userSpaceOnUse">
<stop stop-color="#3B82F6" stop-opacity="0.18"/>
<stop offset="1" stop-color="#3B82F6" stop-opacity="0"/>
</linearGradient>
</defs>
</svg>
